/* XPM */
static char *_a587a3a7d6d48df904087be9b743bbf[] = {
/* columns rows colors chars-per-pixel */
"16 16 180 2 ",
"   c #090A0D",
".  c #0B0B0D",
"X  c #0D0D0F",
"o  c #0F0B13",
"O  c #100B13",
"+  c #110E13",
"@  c #120915",
"#  c #120E14",
"$  c #110B1A",
"%  c #140B18",
"&  c #150B19",
"*  c #17091D",
"=  c #170E1D",
"-  c #170E1F",
";  c #0F101C",
":  c #101215",
">  c #141115",
",  c #141117",
"<  c #141519",
"1  c #171619",
"2  c #181719",
"3  c #1C151F",
"4  c #181919",
"5  c #150A25",
"6  c #1F0924",
"7  c #1F1722",
"8  c #171A24",
"9  c #1B1B23",
"0  c #1B1C21",
"q  c #191E24",
"w  c #1A1D27",
"e  c #141928",
"r  c #111B2C",
"t  c #161C2C",
"y  c #181B2B",
"u  c #230F2F",
"i  c #201E22",
"p  c #201F23",
"a  c #261D2B",
"s  c #320D3B",
"d  c #2B1037",
"f  c #2D1F31",
"g  c #1D262E",
"h  c #1F2231",
"j  c #17213E",
"k  c #14243D",
"l  c #1B253D",
"z  c #222123",
"x  c #222124",
"c  c gray14",
"v  c #262427",
"b  c #272727",
"n  c #252528",
"m  c #2D2C2E",
"M  c #2F2D2F",
"N  c #2F2F2F",
"B  c #2F2732",
"V  c #252830",
"C  c #262834",
"Z  c #2F2C30",
"A  c #2C2C33",
"S  c #2F2F32",
"D  c #2B2C35",
"F  c #2F2F38",
"G  c #312A34",
"H  c #362B3D",
"J  c #3A2B3E",
"K  c #392F3C",
"L  c #2D313E",
"P  c #303132",
"I  c #343035",
"U  c #343335",
"Y  c #32333C",
"T  c #33353E",
"R  c #34363E",
"E  c #3A363B",
"W  c #3A303D",
"Q  c #38373C",
"!  c #3B373C",
"~  c #393839",
"^  c #39393B",
"/  c #3A383B",
"(  c #3A3A3B",
")  c #3C3D3D",
"_  c #3E3E3E",
"`  c #131F41",
"'  c #3B1246",
"]  c #3F134F",
"[  c #133055",
"{  c #3B2740",
"}  c #3A2743",
"|  c #3E2545",
" . c #3E2B46",
".. c #34244F",
"X. c #2D3C47",
"o. c #293B4F",
"O. c #3C3D40",
"+. c #353A4E",
"@. c #353E50",
"#. c #113B6A",
"$. c #46374A",
"%. c #442C56",
"&. c #552C60",
"*. c #5D306B",
"=. c #4E3F70",
"-. c #613B77",
";. c #6D347A",
":. c #6A3E7D",
">. c #364153",
",. c #34435C",
"<. c #3D4A58",
"1. c #13406F",
"2. c #354761",
"3. c #354D6E",
"4. c #384B68",
"5. c #354A7A",
"6. c #375773",
"7. c #325674",
"8. c #3B5074",
"9. c gray25",
"0. c gray29",
"q. c #574965",
"w. c #62556A",
"e. c #6A4175",
"r. c #60636E",
"t. c #5F348A",
"y. c #2D4982",
"u. c #1E629C",
"i. c #216C94",
"p. c #247AA7",
"a. c #377AB1",
"s. c #475980",
"d. c #405C9E",
"f. c #486192",
"g. c #65658F",
"h. c #6F6888",
"j. c #756C87",
"k. c #747986",
"l. c #7E6997",
"z. c #717B9B",
"x. c #5773A4",
"c. c #7961A7",
"v. c #557BCA",
"b. c #638FB0",
"n. c #7A84BE",
"m. c #58A8CD",
"M. c #898A91",
"N. c #97849F",
"B. c #9C939F",
"V. c #968FA7",
"C. c #9C8DAF",
"Z. c #9096A5",
"A. c #9A9EA6",
"S. c #998EB3",
"D. c #9D89B8",
"F. c #AF9EB6",
"G. c #A9AFBC",
"H. c #9DC6E2",
"J. c #BCD1E2",
"K. c #CDD1DE",
"L. c #D3D3DD",
"P. c #D7D6DD",
"I. c #D4D7DF",
"U. c #D5D6E4",
"Y. c #E0DAE5",
"T. c #DCE1E9",
"R. c #E4E3E9",
"E. c #E6E0EA",
"W. c #E5E6E8",
"Q. c #EAE6EC",
"!. c #EBE9F0",
"~. c #F0EEF3",
"^. c #F3EFF4",
"/. c #EAF4F7",
"(. c #F4F2F4",
"). c #F6F5F9",
"_. c #F6F6F8",
"`. c #F8F8F9",
"'. c #FAFAFB",
"]. c None",
/* pixels */
"].].].].].].].Q E ].].].].].].].",
"].].].].R w ; $ % # 2 N ].].].].",
"].].].V r k j 5 * @ + > z ].].].",
"].].D o.6.3.s...d J K W I N ].].",
"].O.L 7.i.#.f.S.F.B.w.J a Q ) ].",
"].A @.[ p.b.T.~.Y.Q._.V.u B ~ ].",
"].C ,.1.m./.K.n.t.*.N.-.s f I ].",
"].h 4.u.H.(.x.v.c.:.:.;.' J N 9.",
"].t 2.a.J.R.y.d.U.E.^.C.] $.0 9.",
"].w l 8.G.'.z.5.g.D.).l.&.G 2 0.",
"].n e >.k.W._.I.L.Q.P.j. .7 v ].",
"].~ 0 X.<.r.M.A.Z.h.q.J = > ! ].",
"].].b . g 8 Y t ` =.| & o c ].].",
"].].].c :   < R +.%.6 @ 0 ].].].",
"].].].].S 4 X 0 F = 7 Z ].].].].",
"].].].].].].].S S ( ].].].].].]."
};
