/* XPM */
static char *_b13536c814f4365a52aa0355acce9b3[] = {
/* columns rows colors chars-per-pixel */
"32 32 256 2 ",
"   c #0B070C",
".  c #07080A",
"X  c #0B0A0D",
"o  c #06070E",
"O  c #0C0714",
"+  c #0D0B12",
"@  c #070C1B",
"#  c #0A0C1B",
"$  c #120716",
"%  c #120B15",
"&  c #150B1B",
"*  c #190B1D",
"=  c #0E1014",
"-  c #0E101A",
";  c #131215",
":  c #13131B",
">  c #19161B",
",  c #1C1C1C",
"<  c #0D0E25",
"1  c #1C0C23",
"2  c #180B29",
"3  c #091226",
"4  c #0B1429",
"5  c #131524",
"6  c #1C1C24",
"7  c #101629",
"8  c #12182C",
"9  c #181C26",
"0  c #170B30",
"q  c #0D1A35",
"w  c #0F1B3A",
"e  c #121B33",
"r  c #1A163D",
"t  c #210D26",
"y  c #230B2B",
"u  c #221F23",
"i  c #25102B",
"p  c #241529",
"a  c #2C0B36",
"s  c #330F3E",
"d  c #2D1334",
"f  c #2D1E32",
"g  c #34123C",
"h  c #1E212B",
"j  c #0D213C",
"k  c #182433",
"l  c #232224",
"z  c #24242B",
"x  c #2A222D",
"c  c #2D2D2E",
"v  c #27282A",
"b  c #262733",
"n  c #252935",
"m  c #2D2A31",
"M  c #292836",
"N  c #302435",
"B  c #322A35",
"V  c #362B39",
"C  c #2C313E",
"Z  c #27323A",
"A  c #333334",
"S  c #33343C",
"D  c #393939",
"F  c #38343D",
"G  c #370D47",
"H  c #2E1948",
"J  c #3C1044",
"K  c #341144",
"L  c #330D51",
"P  c #3E0B58",
"I  c #122244",
"U  c #132449",
"Y  c #12284B",
"T  c #0E2B59",
"R  c #102C57",
"E  c #0E325E",
"W  c #1C3554",
"Q  c #1D385D",
"!  c #3B2643",
"~  c #29374A",
"^  c #3D3D41",
"/  c #363A49",
"(  c #272552",
")  c #233A5D",
"_  c #283751",
"`  c #383959",
"'  c #0F3D67",
"]  c #1D3364",
"[  c #15386B",
"{  c #123F74",
"}  c #262F65",
"|  c #372666",
" . c #253469",
".. c #37316C",
"X. c #420F4E",
"o. c #42124B",
"O. c #4A0F57",
"+. c #461056",
"@. c #4A185D",
"#. c #41334F",
"$. c #4C2A54",
"%. c #4B2959",
"&. c #473659",
"*. c #47156F",
"=. c #4C1568",
"-. c #591066",
";. c #5D106A",
":. c #432062",
">. c #5E2569",
",. c #463A6C",
"<. c #5F3474",
"1. c #35444D",
"2. c #35425A",
"3. c #124374",
"4. c #254568",
"5. c #3A416A",
"6. c #355166",
"7. c #2A5076",
"8. c #3B597E",
"9. c #444444",
"0. c #4A474B",
"q. c #4B4A4B",
"w. c #47434A",
"e. c #4F504F",
"r. c #424553",
"t. c #4E4C52",
"y. c #4F4154",
"u. c #504C52",
"i. c #495257",
"p. c #535354",
"a. c #545359",
"s. c #5A525D",
"d. c #5A5A5C",
"f. c #454F63",
"g. c #455463",
"h. c #4B5369",
"j. c #41576D",
"k. c #565A64",
"l. c #5D5E63",
"z. c #5C5F6A",
"x. c #414B79",
"c. c #594B7A",
"v. c #575979",
"b. c #604D65",
"n. c #625E64",
"m. c #675D6A",
"M. c #695A6F",
"N. c #71477B",
"B. c #6B5771",
"V. c #745E7B",
"C. c #5C606F",
"Z. c #5B6475",
"A. c #52657D",
"S. c #586877",
"D. c #646565",
"F. c #6B627C",
"G. c #726176",
"H. c #75777D",
"J. c #193D81",
"K. c #713B80",
"L. c #643594",
"P. c #6235A3",
"I. c #174180",
"U. c #145489",
"Y. c #1B4E93",
"T. c #1D5E97",
"R. c #244B87",
"E. c #344A8A",
"W. c #2B5A89",
"Q. c #375C87",
"!. c #224A96",
"~. c #22779E",
"^. c #245CA4",
"/. c #1F79AA",
"(. c #2268A7",
"). c #2176A6",
"_. c #257CBC",
"`. c #465D89",
"'. c #5D538C",
"]. c #4A5D97",
"[. c #67568C",
"{. c #7A5587",
"}. c #654997",
"|. c #7D5195",
" X c #5A6483",
".X c #586C88",
"XX c #5F7187",
"oX c #4F7C98",
"OX c #5B7595",
"+X c #716383",
"@X c #7F6C86",
"#X c #6D7280",
"$X c #737785",
"%X c #786996",
"&X c #6A7398",
"*X c #767596",
"=X c #495BA9",
"-X c #6240A7",
";X c #655CA2",
":X c #4772AE",
">X c #6278A2",
",X c #707EA3",
"<X c #237BC1",
"1X c #4074C5",
"2X c #5E74D1",
"3X c #8C5297",
"4X c #806699",
"5X c #837D9B",
"6X c #9876B0",
"7X c #2D8CAA",
"8X c #60808D",
"9X c #618297",
"0X c #748198",
"qX c #498AB9",
"wX c #298EC0",
"eX c #329EC6",
"rX c #339DD5",
"tX c #4299CF",
"yX c #5A9FDE",
"uX c #6094C2",
"iX c #7080D6",
"pX c #53B6D0",
"aX c #7193E1",
"sX c #868A94",
"dX c #93859D",
"fX c #8888A0",
"gX c #9396AE",
"hX c #9699B3",
"jX c #999BB2",
"kX c #89A0BB",
"lX c #AAAAB3",
"zX c #AAA8B7",
"xX c #AE94C5",
"cX c #86B0D1",
"vX c #A7A3C2",
"bX c #ADBCCE",
"nX c #B7B8C5",
"mX c #ACA6D0",
"MX c #95C3DB",
"NX c #BFC1CB",
"BX c #C5C2CA",
"VX c #C6C7D1",
"CX c #D2CCD9",
"ZX c #D6D4DB",
"AX c #DCDCE3",
"SX c #D2DAE3",
"DX c #D8E3ED",
"FX c #DEEAF1",
"GX c #E5E4E9",
"HX c #ECECEE",
"JX c #E6E3E6",
"KX c #EDEDF1",
"LX c #F3F3F5",
"PX c #F8F6F9",
"IX c #FEFEFE",
"UX c None",
/* pixels */
"UXUXUXUXUXUXUXUXUXUXUXUXUXUXUXUXUXUXUXUXUXUXUXUXUXUXUXUXUXUXUXUX",
"UXUXUXUXUXUXUXUXUXUXUXUXe.1.S m m A D q.UXUXUXUXUXUXUXUXUXUXUXUX",
"UXUXUXUXUXUXUXUXUXd.D 9 ; O O O $ + X + > c e.UXUXUXUXUXUXUXUXUX",
"UXUXUXUXUXUXUXUX1.9 @ @ O # $ * * $ $   .   ; c l.UXUXUXUXUXUXUX",
"UXUXUXUXUXUXl.m - 3 4 3 q < # 1 * $ $ O         , q.UXUXUXUXUXUX",
"UXUXUXUXUXd.z # @ j j Y 4.r 0 2 1 * & $     %     ; q.UXUXUXUXUX",
"UXUXUXUXD.n @ j 2.A.A. XOX5.r y y 1 1 V q.s.s.u.A % > e.UXUXUXUX",
"UXUXUXUXA # ~ 9XoX7.Q ) `.,Xc.K G s b.s.F f f B u.d.l , D.UXUXUX",
"UXUXUXq.: M XXW.~.U.E E R.E.'.4X<.4XB.f 1 y y * % m n.l c UXUXUX",
"UXUXUXv 7 Z.) ' 7X~.3.' W.>XvXAXJXKXJXZXlX+X$.! & * B d., p.UXUX",
"UXUXe.: / g.q R ~.).U.Q.bXLXIXIXIXIXIXIXIXPXGXfX0 t & p.c A UXUX",
"UXUXS - k._ j T ).eXqXSXIXIXIXHXCXBXZXLXIXIXGX,.s i & V e.u UXUX",
"UXUXb 5 Z.W U { wXpXDXIXIXKXhX;XL.=.$.N.zXLX*XP g i t x p.; p.UX",
"UXd.6 7 Z.W R T.rXMXIXIXLX&X:XiXP.=.O.O.$.dX@.;.o.d i x p.; 9.UX",
"UXa.9 7 Z.) [ _.tXFXIXIXgX!.yXaX-X*.=.+.J +.;.-.g g g B p.X D UX",
"UXi.5 7 h.Q.U.<XuXPXIXLXx.^.1X2XmX%X|.3XN.{.3XK.J o.g w.^ ; A UX",
"UXu.5 e ~ .X(.rXcXIXIXAX .Y.!.=XDXPXPXPXPXPXPX5XL X.d n.u ; A UX",
"UXp.5 7 8 .XqX(.kXIXIXAX .I.{ ].HXPXPXPXIXIXZX| O.J y.u.& ; D UX",
"UXd.6 - 4 ) >X4.0XIXIXPX XT [ ].gX[.[.6XPXIXnX*.-.$.m.6 ; ; 9.UX",
"UXUXu - 5 I 2.v.h.KXIXIXSX'.] ] } ..}.xXIXIXjXL >.G.x ; % > p.UX",
"UXUXA = : e 3 1.Z.lXIXIXIXLXVXzXzXVXHXIXIXIXnX..V.V * > ; u UXUX",
"UXUXq.; = k g.g.r.$XNXIXIXIXIXIXIXIXIXIXGXzXF.F.! t & m l c UXUX",
"UXUXUXv = ~ 6.8Xz.~ H.sXNXJXLXPXKXAXnX5X&.#.m.N t * % ; v p.UXUX",
"UXUXUX9.> = X 5 6.~ b z.S C r.g.j._ ( H &.M.f % & ; % X A UXUXUX",
"UXUXUXUXc X X X k 1.= k l.n @ 3 I U ..b.B.d * % & = + u l.UXUXUX",
"UXUXUXUXd.l X X = Z = = 6 l.n @ q I c.4Xg t & % % X ; q.UXUXUXUX",
"UXUXUXUXUXp.l X . 9 X X X h l.h 4 ` +X@.a * $ % X ; 9.UXUXUXUXUX",
"UXUXUXUXUXUXp.l X = . . X X z k.n C.H a t * $   6 0.UXUXUXUXUXUX",
"UXUXUXUXUXUXUXUXD > . . . X o S $XM & * $ & ; c a.UXUXUXUXUXUXUX",
"UXUXUXUXUXUXUXUXUXe.A , = X X X 9 + O - , A 0.UXUXUXUXUXUXUXUXUX",
"UXUXUXUXUXUXUXUXUXUXUXUX9.A c v v c A #.p.UXUXUXUXUXUXUXUXUXUXUX",
"UXUXUXUXUXUXUXUXUXUXUXUXUXUXUXUXUXUXUXUXUXUXUXUXUXUXUXUXUXUXUXUX"
};
