/* XPM */
static char *aeadb5d266874e59e19261d8997b1530[] = {
/* columns rows colors chars-per-pixel */
"64 64 256 2 ",
"   c #06070B",
".  c #0A070C",
"X  c #07080D",
"o  c #0B0A0C",
"O  c #070707",
"+  c #0B0713",
"@  c #0D0B13",
"#  c #0B0D1B",
"$  c #070915",
"%  c #120C15",
"&  c #150B1A",
"*  c #190C1E",
"=  c #120716",
"-  c #0E111C",
";  c #0C1016",
":  c #121214",
">  c #13121B",
",  c #1A131D",
"<  c #1B1B1C",
"1  c #171819",
"2  c #0C0E23",
"3  c #070F21",
"4  c #150A23",
"5  c #1C0C22",
"6  c #1C0A2A",
"7  c #160C29",
"8  c #0B1124",
"9  c #0D142C",
"0  c #0B192E",
"q  c #121423",
"w  c #1D1122",
"e  c #1C1C23",
"r  c #12162A",
"t  c #12192C",
"y  c #191D27",
"u  c #180B34",
"i  c #0C1A34",
"p  c #0D1C3B",
"a  c #131C33",
"s  c #141A39",
"d  c #080438",
"f  c #210D26",
"g  c #240C2B",
"h  c #280E2E",
"j  c #251629",
"k  c #2B0C33",
"l  c #250C38",
"z  c #320C3B",
"x  c #2D1134",
"c  c #2A1637",
"v  c #33133B",
"b  c #301137",
"n  c #1D212C",
"m  c #0E213C",
"M  c #18223B",
"N  c #232325",
"B  c #24252A",
"V  c #2A2A2C",
"C  c #2A252C",
"Z  c #2D2C32",
"A  c #262837",
"S  c #332A36",
"D  c #293138",
"F  c #333334",
"G  c #34343B",
"H  c #3B3B3C",
"J  c #39353A",
"K  c #070847",
"L  c #171C46",
"P  c #171953",
"I  c #0F104E",
"U  c #370D46",
"Y  c #281848",
"T  c #3A1244",
"R  c #3B1449",
"E  c #340E50",
"W  c #0E2446",
"Q  c #142445",
"!  c #13254B",
"~  c #112A4B",
"^  c #1C294B",
"/  c #0E2C59",
"(  c #122B54",
")  c #112D5B",
"_  c #182855",
"`  c #15345A",
"'  c #113259",
"]  c #3B3B43",
"[  c #383B48",
"{  c #262559",
"}  c #353A56",
"|  c #2D324D",
" . c #3A1966",
".. c #172C65",
"X. c #0F3764",
"o. c #123464",
"O. c #15396A",
"+. c #193B77",
"@. c #0D2E69",
"#. c #263867",
"$. c #363769",
"%. c #302D72",
"&. c #41124B",
"*. c #450D56",
"=. c #451252",
"-. c #4D125B",
";. c #481255",
":. c #460E52",
">. c #413A45",
",. c #553A5C",
"<. c #492F53",
"1. c #4B1466",
"2. c #571366",
"3. c #4B1673",
"4. c #561678",
"5. c #500E65",
"6. c #671375",
"7. c #423A67",
"8. c #4A3879",
"9. c #522C72",
"0. c #374359",
"q. c #304356",
"w. c #144779",
"e. c #134371",
"r. c #2A4869",
"t. c #364668",
"y. c #325071",
"u. c #30607C",
"i. c #434344",
"p. c #444549",
"a. c #4B4B4C",
"s. c #49464A",
"d. c #464955",
"f. c #534956",
"g. c #535454",
"h. c #5B5B5B",
"j. c #56555B",
"k. c #4E515A",
"l. c #4A4964",
"z. c #555A67",
"x. c #444772",
"c. c #535269",
"v. c #664D6E",
"b. c #5B6375",
"n. c #596A71",
"m. c #646464",
"M. c #6D6D6D",
"N. c #64656A",
"B. c #696B76",
"V. c #786C7C",
"C. c #747474",
"Z. c #7B7C7C",
"A. c #79777A",
"S. c #67717A",
"D. c #60605F",
"F. c #80807F",
"G. c #253C85",
"H. c #3F3B96",
"J. c #1B3F82",
"K. c #571E85",
"L. c #721084",
"P. c #55298C",
"I. c #194887",
"U. c #17578A",
"Y. c #195993",
"T. c #1D4C93",
"R. c #244589",
"E. c #2C5792",
"W. c #186297",
"Q. c #376595",
"!. c #2B7295",
"~. c #2D57A7",
"^. c #1B68A5",
"/. c #1B6CAF",
"(. c #2775B7",
"). c #276EAD",
"_. c #195DA0",
"`. c #504F8D",
"'. c #506D8F",
"]. c #686887",
"[. c #697688",
"{. c #777986",
"}. c #767894",
"|. c #6E6A92",
" X c #6C45B9",
".X c #7278A3",
"XX c #4F5AB0",
"oX c #714DC3",
"OX c #5273C8",
"+X c #6D75D7",
"@X c #867A8B",
"#X c #887B96",
"$X c #957C9D",
"%X c #9A7BA7",
"&X c #8B75AE",
"*X c #A379AC",
"=X c #881A9F",
"-X c #2686B9",
";X c #2F8CB2",
":X c #38A4B4",
">X c #598193",
",X c #768491",
"<X c #718EAC",
"1X c #74A3B2",
"2X c #479DBC",
"3X c #2886C8",
"4X c #3195CE",
"5X c #37A5D9",
"6X c #37AAD2",
"7X c #3EA8E3",
"8X c #4886D4",
"9X c #45B2D6",
"0X c #42B0E3",
"qX c #72B3E5",
"wX c #6A99D8",
"eX c #4FC6D5",
"rX c #77C7E6",
"tX c #8B8B8C",
"yX c #838486",
"uX c #878798",
"iX c #948A98",
"pX c #87909C",
"aX c #9D9B9E",
"sX c #97949A",
"dX c #8A8CA2",
"fX c #8896A7",
"gX c #989AA8",
"hX c #9991AC",
"jX c #A39CA5",
"kX c #A394B8",
"lX c #A085B0",
"zX c #9EA1AA",
"xX c #99A6B8",
"cX c #88A4B0",
"vX c #A5A2A9",
"bX c #AAA8B6",
"nX c #B5AFBC",
"mX c #B199C4",
"MX c #9BB3C4",
"NX c #A8B9CB",
"BX c #B9B9C6",
"VX c #ACACC8",
"CX c #97C0C7",
"ZX c #BECFDB",
"AX c #CCCDD4",
"SX c #D5D4DA",
"DX c #CBCDD4",
"FX c #DCDCE2",
"GX c #C4D2E2",
"HX c #DEE2E7",
"JX c #EBEAEC",
"KX c #E4E5E8",
"LX c #F3F3F4",
"PX c #FFFFFF",
"IX c #EEF0F2",
"UX c None",
/* pixels */
"UXUXUXUXUXUXUXUXUXUXUXUXUXUXUXUXUXUXUXUXUXUXUXUXUXUXUXUXUXUXUXUXUXUXUXUXUXUXUXUXUXUXUXUXUXUXUXUXUXUXUXUXUXUXUXUXUXUXUXUXUXUXUXUX",
"UXUXUXUXUXUXUXUXUXUXUXUXUXUXUXUXUXUXUXUXUXUXUXUXUXUXUXUXUXUXUXUXUXUXUXUXUXUXUXUXUXUXUXUXUXUXUXUXUXUXUXUXUXUXUXUXUXUXUXUXUXUXUXUX",
"UXUXUXUXUXUXUXUXUXUXUXUXUXUXUXUXUXUXUXUXUXUXUXUXUXUXM.D.g.a.s.H ] i.a.a.j.m.A.UXUXUXUXUXUXUXUXUXUXUXUXUXUXUXUXUXUXUXUXUXUXUXUXUX",
"UXUXUXUXUXUXUXUXUXUXUXUXUXUXUXUXUXUXUXUXUXUXZ.h.p.G V B e , > & , , w , < N F H a.m.UXUXUXUXUXUXUXUXUXUXUXUXUXUXUXUXUXUXUXUXUXUX",
"UXUXUXUXUXUXUXUXUXUXUXUXUXUXUXUXUXUXUXUXm.p.D N 1 # $ + + $ + + . = = . o o o % < N J g.Z.UXUXUXUXUXUXUXUXUXUXUXUXUXUXUXUXUXUXUX",
"UXUXUXUXUXUXUXUXUXUXUXUXUXUXUXUXUXUXm.i.Z e # X X $ $ = + + + = = = = o . . . . O O : < F a.F.UXUXUXUXUXUXUXUXUXUXUXUXUXUXUXUXUX",
"UXUXUXUXUXUXUXUXUXUXUXUXUXUXUXUXC.p.D q @ $ 3 $ $ $ $ $ + $ 4 4 = = = o = = o o o O O . o < F g.UXUXUXUXUXUXUXUXUXUXUXUXUXUXUXUX",
"UXUXUXUXUXUXUXUXUXUXUXUXUXUXUXh.G y # $ # 3 # 3 # 3 # # $ = 4 6 & 5 5 o % * % o O . o . O . o N i.M.UXUXUXUXUXUXUXUXUXUXUXUXUXUX",
"UXUXUXUXUXUXUXUXUXUXUXUXUXF.a.Z - 3 ; 3 8 8 3 3 3 9 2 # # # 6 5 * * = = = % % . o . o . . . . o : F h.UXUXUXUXUXUXUXUXUXUXUXUXUX",
"UXUXUXUXUXUXUXUXUXUXUXUXC.i.B ; X 3 8 0 i i 8 0 p L 7 2 # 4 6 4 = * = = = % % . o . o o . . o o O : V g.UXUXUXUXUXUXUXUXUXUXUXUX",
"UXUXUXUXUXUXUXUXUXUXUXC.H e $ # ; 3 0 W m p p m #.r.s 4 6 7 7 4 4 * 5 * * = = % . o . o % . o o o o o N a.UXUXUXUXUXUXUXUXUXUXUX",
"UXUXUXUXUXUXUXUXUXUXC.] q ; 3 8 - 3 m ~ i m / ' u.Q._ 9 u 7 6 6 6 6 * * * = * = % % o . . % . o o o . : C a.UXUXUXUXUXUXUXUXUXUX",
"UXUXUXUXUXUXUXUXUXZ.p.y ; # 0 i 0 0 ' r.0.0.t.y.r.E.{ L Y u u 6 g 6 4 * * = 5 & % , V J J J N % o . o % o N g.UXUXUXUXUXUXUXUXUX",
"UXUXUXUXUXUXUXUXUXa.n # # 8 i m q.,XcXMXcXfXgXxXxXcX'.Y P l u h k g 6 5 6 5 j a.F.sXaXiXiXsXaXiXm.S % . o : V D.UXUXUXUXUXUXUXUX",
"UXUXUXUXUXUXUXUXh.B ; # 0 ~ r.,XNX,Xy.e.( ! ( _ t.<XNXhXl.l l l z l l g k ,.aXiXh.S w , f f C >.Z.aXM.j . o : F A.UXUXUXUXUXUXUX",
"UXUXUXUXUXUXUXM.F > ; - 0 '.NX1X!.e.e.X./ ! o.! ! Q.Q.|.mX].Y E *.*.z U @XjX,.* = 5 * f f f f = % C A.aX>.o o 1 s.UXUXUXUXUXUXUX",
"UXUXUXUXUXUXtXp.< ; # 2 b.xXQ.U.!.!.U.U.' ' ' ' ` Q.Q.8.8.kX#X9.K.*.&.iX@Xx f w * c j 5 h g f 5 % % % f.vXs.o o N D.UXUXUXUXUXUX",
"UXUXUXUXUXUXm.V @ # 2 z.zXy.X.e.!.:XW.U.' ' ' X.I.Q.Q.G...P.kX%X9.,.tXaX,.<.c w * f x g k g g 5 * % * o >.vXJ O : H tXUXUXUXUXUX",
"UXUXUXUXUX,Xi.: @ 8 [ xXr.X.X.e.;X:X;XW.e.X.~ X.E.E.T.%.`..XmXFXSXJXIXJXJXKXAXnX@Xl.c U U k k f * * % * : f.aX< o < g.UXUXUXUXUX",
"UXUXUXUXUXm.V ; # t pXb.i W ' e.^.:X;XW.W.e.X.X.R.E.'.VXFXPXPXPXPXPXPXPXPXPXPXPXPXLXDX#X7.v f.c & : , f * & Z.M.o : H F.UXUXUXUX",
"UXUXUXUXtXs.1 ; @ p.gXQ p p W X.W.:X/.W.U.X.e.e.'.NXLXPXPXPXPXPXPXPXPXPXPXPXPXPXPXPXPXPXKXAXIX].d & w g * & S aXN o N D.UXUXUXUX",
"UXUXUXUXM.F - - ; ,Xb.i i p p / W.-X-X^.W.U.w.<XHXPXPXPXPXPXPXPXPXPXPXPXPXPXPXPXPXPXPXPXPXPXKX$.d g g w * , % A.D.o : i.UXUXUXUX",
"UXUXUXUXj.e % # n zXq.p p Q W X.W.-X:X(./.Y.cXLXPXPXPXPXPXPXPXPXPXPXPXPXPXPXPXPXPXPXPXPXPXPX}.K &.x x f w , o s.tX: o V A.UXUXUX",
"UXUXUXyXi., - - [ gX~ m m W W @.U.4X9X6X-XMXPXPXPXPXPXPXPXPXPXHXBXvXlXjXnXSXIXPXPXPXPXPXPXBXI E &.x x j * w * S aX< : < h.UXUXUX",
"UXUXUXC.G q - # c.pX~ ~ W ! ) I.W.6XeXeXCXPXPXPXPXPXPXPXLXBX|.x.P.4.5.E R <.v.%XAXPXPXPXJXx.E 5.v h h h f * * S aXV o 1 i.UXUXUX",
"UXUXUXm.C - - # z.fX~ ~ ! ! ) Y.-X6X4X9XIXPXPXPXPXPXPXHX|.%.H. X XP.4.1.R 2.5.*.<.aXLXPXdXK *.2.&.x b x j w 5 1 tXF o : H tXUXUX",
"UXUXUXh.e q q 8 z.1X~ ~ ! ! @./.6X6X-XZXPXPXPXPXPXPXFXx.G.OX+X+X XK.4.5.=.2.-.2.v <.JXAXP l 2.L.-.b b b g w w , tXF o o V C.UXUX",
"UXUXUXa.e q r 0 z.fX~ ~ ( ) I.3X6X4XqXLXPXPXPXPXPXKXx...OXrXqX+XoXK.1.1.E -.-.&.&.&.V.v.1.2.2.6.:.b x v h f f , sXF : : N M.UXUX",
"UXUXF.s.n , q 9 d.fXQ ^ ' X./.4X5X4XGXPXPXPXPXPXPX}.K ~.8XrXqX+XoXP.4.3.1.;.;.R U U U &.6.6.2.-.&.b b v v h w N aXV o : < h.UXUX",
"UXUX,X] r > q q | xX` X.e.w.(.4X3X2XIXPXPXPXPXPXAXP @.8X8XqX8X+X XK.3.4.4.4.1.;.&.&.;.&.2.6.6.-.v x b &.&.v , J sX: : : < g.UXUX",
"UXUX{.] q , q r M xXx.e.w.Y./.3X/.1XPXPXPXPXPXPXuXK T.8X8X8X+X+X+XBX$.I 4.4.4.-.:.U -.:.2.L.L.-.T v T &.=.v % h.Z.: : : < a.UXUX",
"UXUXF.] q q r a a ,X[.e.I._.(.4X_.MXPXPXPXPXPXLXx.I _.(./.~.8X+XVXPXbX}.*X%X*XiX$X$X*X%X*X*X*X<.U &.;.&.&.h 1 tXa.: : : 1 a.UXUX",
"UXUXZ.G q q a a 0 d.zX#.I.~.7X7X(.GXPXPXPXPXPXFXP @._.T.~.~.~.XXGXPXPXPXPXPXPXPXPXPXPXPXPXPXPX}.K E &.&.T w J aXN * % : 1 a.UXUX",
"UXUXZ.] > , a p t m gXQ.U.(.0X5X;XHXPXPXPXPXPXSXP @.T.T.T.R.R.XXFXPXPXPXPXPXPXPXPXPXPXPXPXPXdX .E *.=.&.v , Z.M.* , : : < a.UXUX",
"UXUXZ.] q - t a t 0 c.xX(.7X4X).Q.KXPXPXPXPXPXAXP ..I.I.G.+.R.`.IXPXPXPXPXPXPXPXPXPXPXPXPXSXP E -.-.=.x f >.jXC , , : : < g.UXUX",
"UXUXyXi.q - q r t t L cX<X)./.U.y.KXPXPXPXPXPXHX{ K J.J.J.J.G.'.LXPXPXPXPXPXPXPXPXPXPXPXPXBXI 5.:.=.T b b iXD.: * : : : < h.UXUX",
"UXUXUXa.< - > q 9 t p t.MXQ.I.+.#.SXPXPXPXPXPXPX'.K O.+...+.G..XPXBX.XdX#X&X%XmXPXPXPXPXPXkXK 6.2.;.T b V.iX< * % : : : C m.UXUX",
"UXUXUXj.e : - q q 9 Q O..XxX` ' _ BXPXPXPXPXPXPXBXP I O._ +.+.`.VX$.I 3. . .4.&XPXPXPXPXPX|.I =X6.2.:.f.vXC = : : : : : V C.UXUX",
"UXUXUXm.B ; - > > q p o.! }.,X^ p uXPXPXPXPXPXPXPXhXP W _ O.+...#.%.%.%.P.P.K.mXPXPXPXPXLXx.K 6.6.2.v.vX>.% , : : : : : J yXUXUX",
"UXUXUXM.F : % ; - r s s s s sX}.p 0.KXPXPXPXPXPXPXPXBX$.! ) ../ .._ P  .`.&XmXJXPXPXPXPXLX$.u U &.,.jX,.* , , % : : : : s.UXUXUX",
"UXUXUXZ.i.1 ; % ; q ` s 9 2 A dX{.s zXPXPXPXPXPXPXPXPXJXBXpXS.c.b.|.dXbXFXLXPXPXPXPXPXPXLXzXP u ,.bXj.* , , : : o : : < g.UXUXUX",
"UXUXUXUXj.< @ : : - n a r 2 8 M dX{.0.SXPXPXPXPXPXPXPXPXPXPXPXPXPXPXPXPXPXPXPXPXPXPXPXPXPXSXP 7.bXv.g w & : % : o : : V C.UXUXUX",
"UXUXUXUXm.Z : o - - - 8 r e n > n dX,Xz.FXPXPXPXPXPXPXPXPXPXPXPXPXPXPXPXPXPXPXPXPXPXPXJXzX$.7.bXv.z h w * : S v.F o 1 >.UXUXUXUX",
"UXUXUXUXF.i.1 : ; - ; D ,X1XcXn.n y @XuXn.AXPXPXPXPXPXPXPXPXPXPXPXPXPXPXPXPXPXPXPXFXhX} l f.bX,.g 5 h h & & w C s.% N h.UXUXUXUX",
"UXUXUXUXUXh.V : : ; D >X>X'.1XCX,Xy 8 {.gXl.sXKXPXPXPXPXPXPXPXPXPXPXPXPXPXPXJXBX].| u 4 B.jX>.f g * w * : % o o S < J F.UXUXUXUX",
"UXUXUXUXUXA.i.: o : q.m 0 y q.>XcXS.8 9 b.aX[ 0.,XBXFXLXPXPXPXPXPXLXKXDXzXB.$.Y l l c V.jXS * w x * & & : o % o * N g.UXUXUXUXUX",
"UXUXUXUXUXUXh.N ; ; - o X ; o q y.1XD 2 8 j.zXp.# r Z 0.h.B.S.[.b.l.} M s u  .Y l c @XiXv * & - * % : : % % : o : J Z.UXUXUXUXUX",
"UXUXUXUXUXUXZ.i.< o ; o o X o o a >Xn.# # ; 0.zXd.# # # # 3 3 m ( ~ W p L $.8.l b #XiXb 5 * & & - % % % % % % o N h.UXUXUXUXUXUX",
"UXUXUXUXUXUXUXm.F : o o : o : o ; r.>X1 ; ; # [ zXg.- # # 8 8 i ^ _ ^ ! Y `.7.Y iX@Xv f * * * * & * % @ @ @ @ < i.tXUXUXUXUXUXUX",
"UXUXUXUXUXUXUXUXg.N o o o o o o o y n.N ; ; 3 $ D aXj.# 8 - 8 0 m Q ! ^ { `.9.iX@Xb k f * & % & & & % @ o o : F M.UXUXUXUXUXUXUX",
"UXUXUXUXUXUXUXUXZ.i.< o o o o o o ; r.D ; ; ; $ $ Z aXj.# - # 8 0 m Q s { P.kX#Xz k k g 5 & % o @ % % @ o @ V h.UXUXUXUXUXUXUXUX",
"UXUXUXUXUXUXUXUXUXM.H < o O o o o O D D X ; ; ; ;   D zXk.$ # 3 q i W L { hXlX=.z z g 5 w % = % @ @ @ o @ N a.UXUXUXUXUXUXUXUXUX",
"UXUXUXUXUXUXUXUXUXUXM.H < O o o o o n B o X o o o o o [ zXp.3 3 8 i ^ { }.kX9.=.z k 5 * * % o % @ @ @ o N s.UXUXUXUXUXUXUXUXUXUX",
"UXUXUXUXUXUXUXUXUXUXUXm.H 1 O O o O y y X o o o o o ; $ H zXG $ 3 0 m [.gX=.1.=.k g 5 = o = o o . o : N i.UXUXUXUXUXUXUXUXUXUXUX",
"UXUXUXUXUXUXUXUXUXUXUXUXm.H N o O o ; ; o o o o     ; o   d.aXn 3 3 l.zXc Y &.k k 5 * = = o o o . % B s.UXUXUXUXUXUXUXUXUXUXUXUX",
"UXUXUXUXUXUXUXUXUXUXUXUXUXM.i.N ; O o o O o o O o o o X X $ N.tX# A vX[ = z z * f 5 5 = = o o . 1 F g.UXUXUXUXUXUXUXUXUXUXUXUXUX",
"UXUXUXUXUXUXUXUXUXUXUXUXUXUXZ.g.F 1 o O O O O o o     o X $ ; yXS.tXN.3 7 l 6 = = * * = o . % N H m.UXUXUXUXUXUXUXUXUXUXUXUXUXUX",
"UXUXUXUXUXUXUXUXUXUXUXUXUXUXUXUXD.i.V : o O O O O O o   $ X   n bXiX# $ 2 & 5 = = = = % % < F a.Z.UXUXUXUXUXUXUXUXUXUXUXUXUXUXUX",
"UXUXUXUXUXUXUXUXUXUXUXUXUXUXUXUXUXUXg.H V 1 o O O O O o o X X X F n X $ + + + . . = * N S i.M.UXUXUXUXUXUXUXUXUXUXUXUXUXUXUXUXUX",
"UXUXUXUXUXUXUXUXUXUXUXUXUXUXUXUXUXUXUXZ.g.H V N 1 o   O       X X X X X X + @ % < C J s.m.UXUXUXUXUXUXUXUXUXUXUXUXUXUXUXUXUXUXUX",
"UXUXUXUXUXUXUXUXUXUXUXUXUXUXUXUXUXUXUXUXUXUXm.a.H F B N < 1 : : : : > < e B V J i.h.C.UXUXUXUXUXUXUXUXUXUXUXUXUXUXUXUXUXUXUXUXUX",
"UXUXUXUXUXUXUXUXUXUXUXUXUXUXUXUXUXUXUXUXUXUXUXUXUXM.D.a.p.i.H H H H H i.s.g.m.UXUXUXUXUXUXUXUXUXUXUXUXUXUXUXUXUXUXUXUXUXUXUXUXUX",
"UXUXUXUXUXUXUXUXUXUXUXUXUXUXUXUXUXUXUXUXUXUXUXUXUXUXUXUXUXUXUXUXUXUXUXUXUXUXUXUXUXUXUXUXUXUXUXUXUXUXUXUXUXUXUXUXUXUXUXUXUXUXUXUX",
"UXUXUXUXUXUXUXUXUXUXUXUXUXUXUXUXUXUXUXUXUXUXUXUXUXUXUXUXUXUXUXUXUXUXUXUXUXUXUXUXUXUXUXUXUXUXUXUXUXUXUXUXUXUXUXUXUXUXUXUXUXUXUXUX"
};
